<?xml version="1.0" encoding="utf-8"?>
<!-- Generator: Adobe Illustrator 25.2.3, SVG Export Plug-In . SVG Version: 6.00 Build 0)  -->
<svg version="1.1" id="レイヤー_1" xmlns="http://www.w3.org/2000/svg" xmlns:xlink="http://www.w3.org/1999/xlink" x="0px"
	 y="0px" viewBox="0 0 300 60" style="enable-background:new 0 0 300 60;" xml:space="preserve">
<style type="text/css">
	.st0{fill:none;stroke:#622D18;stroke-width:0.75;stroke-miterlimit:10;}
	.st1{fill-rule:evenodd;clip-rule:evenodd;fill:#FFF462;}
	.st2{fill-rule:evenodd;clip-rule:evenodd;fill:none;stroke:#622D18;stroke-width:0.75;stroke-miterlimit:10;}
	.st3{fill:#622D18;}
	.st4{font-family:'SinhalaMN-Bold';}
	.st5{font-size:20px;}
	.st6{letter-spacing:1;}
</style>
<g>
	<line class="st0" x1="23.19" y1="34.31" x2="47.51" y2="10"/>
</g>
<g>
	<line class="st0" x1="63.69" y1="34.31" x2="39.37" y2="10"/>
</g>
<circle class="st1" cx="39.21" cy="38.8" r="12.41"/>
<circle class="st2" cx="43.81" cy="36.59" r="12.41"/>
<text transform="matrix(1 0 0 1 73.9697 37.9912)"><tspan x="0" y="0" class="st3 st4 st5">C</tspan><tspan x="17.18" y="0" class="st3 st4 st5 st6">H</tspan><tspan x="33.49" y="0" class="st3 st4 st5">I</tspan><tspan x="40.86" y="0" class="st3 st4 st5">N</tspan><tspan x="56.24" y="0" class="st3 st4 st5">T</tspan><tspan x="68.8" y="0" class="st3 st4 st5">A</tspan><tspan x="83.99" y="0" class="st3 st4 st5">I</tspan><tspan x="90.95" y="0" class="st3 st4 st5 st6"> </tspan><tspan x="96.25" y="0" class="st3 st4 st5">- S</tspan><tspan x="120.8" y="0" class="st3 st4 st5">T</tspan><tspan x="133.76" y="0" class="st3 st4 st5">A</tspan><tspan x="147.36" y="0" class="st3 st4 st5">TI</tspan><tspan x="168.88" y="0" class="st3 st4 st5">O</tspan><tspan x="186.97" y="0" class="st3 st4 st5">N</tspan></text>
<text transform="matrix(1 0 0 1 407.9878 38.3497)"><tspan x="0" y="0" class="st3" style="font-family:'YuGo-Bold-83pv-RKSJ-H'; font-size:18px; letter-spacing:4;">086-</tspan><tspan x="55.96" y="0" class="st3" style="font-family:'YuGo-Bold-83pv-RKSJ-H'; font-size:18px; letter-spacing:4;">4</tspan><tspan x="70.96" y="0" class="st3" style="font-family:'YuGo-Bold-83pv-RKSJ-H'; font-size:18px; letter-spacing:3;">4</tspan><tspan x="84.87" y="0" class="st3" style="font-family:'YuGo-Bold-83pv-RKSJ-H'; font-size:18px; letter-spacing:2;">1</tspan><tspan x="98.07" y="0" class="st3" style="font-family:'YuGo-Bold-83pv-RKSJ-H'; font-size:18px; letter-spacing:4;">-</tspan><tspan x="110.13" y="0" class="st3" style="font-family:'YuGo-Bold-83pv-RKSJ-H'; font-size:18px; letter-spacing:3;">8</tspan><tspan x="123.68" y="0" class="st3" style="font-family:'YuGo-Bold-83pv-RKSJ-H'; font-size:18px; letter-spacing:2;">1</tspan><tspan x="136.51" y="0" class="st3" style="font-family:'YuGo-Bold-83pv-RKSJ-H'; font-size:18px; letter-spacing:2;">8</tspan><tspan x="149.71" y="0" class="st3" style="font-family:'YuGo-Bold-83pv-RKSJ-H'; font-size:18px;">1</tspan></text>
<path class="st3" d="M397.69,36.41l-3.79,1.95c-2.26-2.86-3.91-6.07-4.92-9.57l3.79-1.95c0.18-0.09,0.25-0.31,0.16-0.48l-3.41-6.64
	c-0.04-0.08-0.12-0.15-0.21-0.18c-0.09-0.03-0.19-0.02-0.27,0.02l-1.49,0.76c-1.43,0.74-2.21,1.4-2.64,1.88
	c-0.19,0.26-0.35,0.5-0.41,0.61c-0.35,0.65-0.59,1.37-0.7,2.13c-0.11,0.74-0.14,1.53-0.08,2.32c0,0.06,0.01,0.12,0.02,0.19
	l0.01,0.08c0,0.02,0,0.05,0,0.07c0,0.04,0,0.08,0.01,0.12c0.08,0.84,0.23,1.67,0.45,2.49c0.13,0.48,0.28,0.98,0.45,1.46l0.03,0.09
	c0.03,0.08,0.05,0.15,0.08,0.23c0.27,0.76,0.55,1.49,0.85,2.17l0.12,0.26c0.26,0.59,0.52,1.12,0.76,1.59l0.03,0.06l0.03,0.07
	c0.25,0.48,0.54,1,0.87,1.57c0,0,0.01,0.01,0.01,0.02l0.12,0.21c0.38,0.63,0.8,1.29,1.27,1.95c0.05,0.07,0.11,0.15,0.16,0.22
	l0.05,0.07c0.29,0.41,0.6,0.82,0.91,1.2c0.53,0.65,1.13,1.26,1.76,1.81c0.03,0.03,0.06,0.05,0.09,0.07
	c0.02,0.02,0.04,0.03,0.05,0.04l0.07,0.06c0.05,0.04,0.1,0.08,0.14,0.13c0.61,0.52,1.26,0.95,1.93,1.29
	c0.68,0.35,1.4,0.57,2.13,0.66c0.15,0.02,0.3,0.04,0.45,0.06c0.21,0.02,1.16,0.05,2.36-0.57l2.49-1.28
	c0.18-0.09,0.25-0.31,0.16-0.48l-3.41-6.64C398.09,36.39,397.87,36.32,397.69,36.41z"/>
</svg>
