<?xml version="1.0" encoding="utf-8"?>
<!-- Generator: Adobe Illustrator 25.2.3, SVG Export Plug-In . SVG Version: 6.00 Build 0)  -->
<svg version="1.1" xmlns="http://www.w3.org/2000/svg" xmlns:xlink="http://www.w3.org/1999/xlink" x="0px" y="0px"
	 viewBox="0 0 766 430" style="enable-background:new 0 0 766 430;" xml:space="preserve">
<style type="text/css">
	.st0{display:none;fill-rule:evenodd;clip-rule:evenodd;fill:#81C5D4;}
	.st1{fill-rule:evenodd;clip-rule:evenodd;fill:#612E17;}
	.st2{fill:#612E17;}
	.st3{font-family:'Mamelon-3-Hi-Regular-83pv-RKSJ-H';}
	.st4{font-size:56px;}
	.st5{letter-spacing:10;}
	.st6{letter-spacing:8;}
	.st7{letter-spacing:7;}
	.st8{letter-spacing:4;}
	.st9{font-size:36px;}
	.st10{letter-spacing:2;}
	.st11{font-family:'SinhalaMN';}
	.st12{font-size:30px;}
	.st13{letter-spacing:3;}
	.st14{letter-spacing:1;}
	.st15{display:none;fill-rule:evenodd;clip-rule:evenodd;fill:#F6ED68;}
	.st16{display:none;}
	.st17{display:inline;}
	.st18{fill:none;stroke:#8FC31F;stroke-miterlimit:10;}
	.st19{fill:none;stroke:#8FC31F;stroke-miterlimit:10;stroke-dasharray:12.0328,12.0328;}
	.st20{fill:none;stroke:#8FC31F;stroke-miterlimit:10;stroke-dasharray:12.0606,12.0606;}
	.st21{fill:none;stroke:#8FC31F;stroke-miterlimit:10;stroke-dasharray:12.1017,12.1017;}
	.st22{fill:none;stroke:#8FC31F;stroke-miterlimit:10;stroke-dasharray:12.1935,12.1935;}
	.st23{fill:none;stroke:#8FC31F;stroke-miterlimit:10;stroke-dasharray:12.1754,12.1754;}
	.st24{fill:none;stroke:#8FC31F;stroke-miterlimit:10;stroke-dasharray:12.3448,12.3448;}
	.st25{fill-rule:evenodd;clip-rule:evenodd;fill:none;stroke:#8FC31F;stroke-miterlimit:10;stroke-dasharray:12;}
</style>
<g id="レイヤー_1">
	<rect x="-8.5" y="-8.35" class="st0" width="783.01" height="447.01"/>
	<g>
		<circle class="st1" cx="152.05" cy="150.48" r="6.8"/>
		<circle class="st1" cx="152.05" cy="175.34" r="6.8"/>
		<circle class="st1" cx="152.05" cy="199.5" r="6.8"/>
		<rect x="167.41" y="147.69" class="st1" width="54.43" height="5.58"/>
		<rect x="167.41" y="172.55" class="st1" width="54.43" height="5.58"/>
		<rect x="167.41" y="196.71" class="st1" width="54.43" height="5.58"/>
	</g>
	<text transform="matrix(1 0 0 1 238.2983 197.2272)"><tspan x="0" y="0" class="st2 st3 st4 st5">詳</tspan><tspan x="66.08" y="0" class="st2 st3 st4 st6">細</tspan><tspan x="131.04" y="0" class="st2 st3 st4 st7">条</tspan><tspan x="194.88" y="0" class="st2 st3 st4 st8">件</tspan><tspan x="255.36" y="2.4" class="st2 st3 st9 st10">か</tspan><tspan x="294.24" y="2.4" class="st2 st3 st9 st10">ら</tspan><tspan x="332.4" y="2.4" class="st2 st3 st9 st10">探</tspan><tspan x="371.28" y="2.4" class="st2 st3 st9">す</tspan></text>
	<g>
		<text transform="matrix(1 0 0 1 150.767 278.7191)"><tspan x="0" y="0" class="st2 st11 st12">Search</tspan><tspan x="99.02" y="0" class="st2 st11 st12 st13"> </tspan><tspan x="108.18" y="0" class="st2 st11 st12">from</tspan><tspan x="179.12" y="0" class="st2 st11 st12 st14"> </tspan><tspan x="186.47" y="0" class="st2 st11 st12">detailed</tspan><tspan x="303.38" y="0" class="st2 st11 st12 st14"> </tspan><tspan x="311.33" y="0" class="st2 st11 st12">conditions</tspan></text>
	</g>
</g>
<g id="CGL_x5F_00" class="st16">
	<g class="st17">
		<g>
			<g>
				<polyline class="st18" points="756,414.15 756,420.15 750,420.15 				"/>
				<line class="st19" x1="737.97" y1="420.15" x2="22.02" y2="420.15"/>
				<polyline class="st18" points="16,420.15 10,420.15 10,414.15 				"/>
				<line class="st20" x1="10" y1="402.09" x2="10" y2="22.18"/>
				<polyline class="st18" points="10,16.15 10,10.15 16,10.15 				"/>
				<line class="st19" x1="28.03" y1="10.15" x2="743.98" y2="10.15"/>
				<polyline class="st18" points="750,10.15 756,10.15 756,16.15 				"/>
				<line class="st20" x1="756" y1="28.21" x2="756" y2="408.12"/>
			</g>
		</g>
		<g>
			<g>
				<polyline class="st18" points="746,404.15 746,410.15 740,410.15 				"/>
				<line class="st21" x1="727.9" y1="410.15" x2="32.05" y2="410.15"/>
				<polyline class="st18" points="26,410.15 20,410.15 20,404.15 				"/>
				<line class="st22" x1="20" y1="391.96" x2="20" y2="32.25"/>
				<polyline class="st18" points="20,26.15 20,20.15 26,20.15 				"/>
				<line class="st21" x1="38.1" y1="20.15" x2="733.95" y2="20.15"/>
				<polyline class="st18" points="740,20.15 746,20.15 746,26.15 				"/>
				<line class="st22" x1="746" y1="38.34" x2="746" y2="398.05"/>
			</g>
		</g>
		<g>
			<g>
				<polyline class="st18" points="736,394.15 736,400.15 730,400.15 				"/>
				<line class="st23" x1="717.82" y1="400.15" x2="42.09" y2="400.15"/>
				<polyline class="st18" points="36,400.15 30,400.15 30,394.15 				"/>
				<line class="st24" x1="30" y1="381.81" x2="30" y2="42.32"/>
				<polyline class="st18" points="30,36.15 30,30.15 36,30.15 				"/>
				<line class="st23" x1="48.18" y1="30.15" x2="723.91" y2="30.15"/>
				<polyline class="st18" points="730,30.15 736,30.15 736,36.15 				"/>
				<line class="st24" x1="736" y1="48.49" x2="736" y2="387.98"/>
			</g>
		</g>
		<line class="st25" x1="-8.5" y1="215.15" x2="774.5" y2="215.15"/>
		<line class="st25" x1="383" y1="-8.35" x2="383" y2="438.65"/>
	</g>
</g>
<g id="CGL_x5F_01" class="st16">
</g>
</svg>
