<?xml version="1.0" encoding="utf-8"?>
<!-- Generator: Adobe Illustrator 25.2.3, SVG Export Plug-In . SVG Version: 6.00 Build 0)  -->
<svg version="1.1" xmlns="http://www.w3.org/2000/svg" xmlns:xlink="http://www.w3.org/1999/xlink" x="0px" y="0px"
	 viewBox="0 0 766 430" style="enable-background:new 0 0 766 430;" xml:space="preserve">
<style type="text/css">
	.st0{display:none;fill-rule:evenodd;clip-rule:evenodd;fill:#81C5D4;}
	.st1{fill-rule:evenodd;clip-rule:evenodd;fill:#612E17;}
	.st2{display:none;fill-rule:evenodd;clip-rule:evenodd;fill:#F6ED68;}
	.st3{fill:#612E17;}
	.st4{font-family:'Mamelon-3-Hi-Regular-83pv-RKSJ-H';}
	.st5{font-size:56px;}
	.st6{letter-spacing:12;}
	.st7{letter-spacing:8;}
	.st8{font-size:36px;}
	.st9{letter-spacing:2;}
	.st10{letter-spacing:3;}
	.st11{font-family:'SinhalaMN';}
	.st12{font-size:30px;}
	.st13{letter-spacing:1;}
	.st14{display:none;}
	.st15{display:inline;}
	.st16{fill:none;stroke:#8FC31F;stroke-miterlimit:10;}
	.st17{fill:none;stroke:#8FC31F;stroke-miterlimit:10;stroke-dasharray:12.0328,12.0328;}
	.st18{fill:none;stroke:#8FC31F;stroke-miterlimit:10;stroke-dasharray:12.0606,12.0606;}
	.st19{fill:none;stroke:#8FC31F;stroke-miterlimit:10;stroke-dasharray:12.1017,12.1017;}
	.st20{fill:none;stroke:#8FC31F;stroke-miterlimit:10;stroke-dasharray:12.1935,12.1935;}
	.st21{fill:none;stroke:#8FC31F;stroke-miterlimit:10;stroke-dasharray:12.1754,12.1754;}
	.st22{fill:none;stroke:#8FC31F;stroke-miterlimit:10;stroke-dasharray:12.3448,12.3448;}
	.st23{fill-rule:evenodd;clip-rule:evenodd;fill:none;stroke:#8FC31F;stroke-miterlimit:10;stroke-dasharray:12;}
</style>
<g id="レイヤー_1">
	<rect x="-8.5" y="-8.35" class="st2" width="783.01" height="446.86"/>
	<g>
		<rect x="194.12" y="140.56" class="st1" width="5.1" height="61.16"/>
		<circle class="st1" cx="196.64" cy="146.37" r="11.82"/>
	</g>
	<text transform="matrix(1 0 0 1 240.0403 195.752)"><tspan x="0" y="0" class="st3 st4 st5 st6">地</tspan><tspan x="68.32" y="0" class="st3 st4 st5 st7">図</tspan><tspan x="133.28" y="1.01" class="st3 st4 st8 st9">か</tspan><tspan x="172.16" y="1.01" class="st3 st4 st8 st9">ら</tspan><tspan x="210.32" y="1.01" class="st3 st4 st8 st10">探</tspan><tspan x="249.92" y="1.01" class="st3 st4 st8">す</tspan></text>
	<text transform="matrix(1 0 0 1 232.0721 278.7196)"><tspan x="0" y="0" class="st3 st11 st12">Search</tspan><tspan x="99.02" y="0" class="st3 st11 st12 st13"> </tspan><tspan x="106.98" y="0" class="st3 st11 st12">fro</tspan><tspan x="149.81" y="0" class="st3 st11 st12 st13">m</tspan><tspan x="179.12" y="0" class="st3 st11 st12"> th</tspan><tspan x="215.02" y="0" class="st3 st11 st12">e</tspan><tspan x="233.29" y="0" class="st3 st11 st12"> map</tspan></text>
</g>
<g id="CGL_x5F_00" class="st14">
</g>
<g id="CGL_x5F_01" class="st14">
	<g class="st15">
		<g>
			<g>
				<polyline class="st16" points="756,414 756,420 750,420 				"/>
				<line class="st17" x1="737.97" y1="420" x2="22.02" y2="420"/>
				<polyline class="st16" points="16,420 10,420 10,414 				"/>
				<line class="st18" x1="10" y1="401.94" x2="10" y2="22.03"/>
				<polyline class="st16" points="10,16 10,10 16,10 				"/>
				<line class="st17" x1="28.03" y1="10" x2="743.98" y2="10"/>
				<polyline class="st16" points="750,10 756,10 756,16 				"/>
				<line class="st18" x1="756" y1="28.06" x2="756" y2="407.97"/>
			</g>
		</g>
		<g>
			<g>
				<polyline class="st16" points="746,404 746,410 740,410 				"/>
				<line class="st19" x1="727.9" y1="410" x2="32.05" y2="410"/>
				<polyline class="st16" points="26,410 20,410 20,404 				"/>
				<line class="st20" x1="20" y1="391.81" x2="20" y2="32.1"/>
				<polyline class="st16" points="20,26 20,20 26,20 				"/>
				<line class="st19" x1="38.1" y1="20" x2="733.95" y2="20"/>
				<polyline class="st16" points="740,20 746,20 746,26 				"/>
				<line class="st20" x1="746" y1="38.19" x2="746" y2="397.9"/>
			</g>
		</g>
		<g>
			<g>
				<polyline class="st16" points="736,394 736,400 730,400 				"/>
				<line class="st21" x1="717.82" y1="400" x2="42.09" y2="400"/>
				<polyline class="st16" points="36,400 30,400 30,394 				"/>
				<line class="st22" x1="30" y1="381.66" x2="30" y2="42.17"/>
				<polyline class="st16" points="30,36 30,30 36,30 				"/>
				<line class="st21" x1="48.18" y1="30" x2="723.91" y2="30"/>
				<polyline class="st16" points="730,30 736,30 736,36 				"/>
				<line class="st22" x1="736" y1="48.35" x2="736" y2="387.83"/>
			</g>
		</g>
		<line class="st23" x1="-8.5" y1="215" x2="774.5" y2="215"/>
		<line class="st23" x1="383" y1="-8.5" x2="383" y2="438.5"/>
	</g>
</g>
</svg>
